<svg id="Capa_1" data-name="Capa 1" xmlns="http://www.w3.org/2000/svg" viewBox="0 0 251.03 315.81"><defs><style>.cls-1,.cls-6,.cls-8{fill:#1d1d1b;}.cls-10,.cls-2,.cls-5,.cls-7{fill:#fff;}.cls-3,.cls-4{fill:none;}.cls-10,.cls-3,.cls-4,.cls-5,.cls-7,.cls-9{stroke:#1d1d1b;}.cls-10,.cls-3,.cls-4,.cls-5,.cls-6,.cls-7,.cls-8,.cls-9{stroke-miterlimit:10;}.cls-3,.cls-7,.cls-8,.cls-9{stroke-width:4px;}.cls-4{stroke-width:3px;}.cls-5{stroke-width:5px;}.cls-6,.cls-8{stroke:#fff;}.cls-9{fill:#009640;}</style></defs><path class="cls-1" d="M802.92,710.51c-.23.14-6.5.46-16.65.89a32.82,32.82,0,0,1,6.63,19.29c0,27.7-38.68,50.16-86.38,50.16s-86.38-22.46-86.38-50.16a31,31,0,0,1,3-13.06c-9.27.4-14.88.69-14.9.82-.84,3.65-17.75,37.45-9,75.75L805.13,796C813.52,760.28,798.8,741,802.92,710.51Z" transform="translate(-574.53 -542.39)"/><ellipse class="cls-1" cx="127.7" cy="258.5" rx="109.17" ry="57.31"/><circle class="cls-2" cx="201.21" cy="261.88" r="19.56"/><path class="cls-3" d="M763.52,803.52a65.2,65.2,0,0,0,23.57,0" transform="translate(-574.53 -542.39)"/><path class="cls-4" d="M768.49,815.1c4.82-15.34-4-20.52,0-23.57" transform="translate(-574.53 -542.39)"/><path class="cls-4" d="M782.52,815.31c-4.82-15.35,4-20.52,0-23.58" transform="translate(-574.53 -542.39)"/><circle class="cls-5" cx="125.52" cy="125.52" r="123.02"/><circle class="cls-6" cx="64.97" cy="81.86" r="30.56"/><circle class="cls-6" cx="186.06" cy="81.86" r="30.56"/><path class="cls-7" d="M700,682.49h0a98.71,98.71,0,0,1,98.71,98.71v0a0,0,0,0,1,0,0H601.34a0,0,0,0,1,0,0v0A98.71,98.71,0,0,1,700,682.49Z" transform="translate(825.56 921.3) rotate(180)"/><circle class="cls-8" cx="125.47" cy="115.4" r="7.1"/><path class="cls-7" d="M614.54,731.85c57.89,6.56,114.82,6,171,0" transform="translate(-574.53 -542.39)"/><path class="cls-9" d="M633,682.49c1.89,26.57,2.36,51.17,0,71.79" transform="translate(-574.53 -542.39)"/><path class="cls-9" d="M768.08,682.49c-1.17,26.2-1.42,50.55,0,71.53" transform="translate(-574.53 -542.39)"/><path class="cls-9" d="M737.4,682.49a889.64,889.64,0,0,0,0,91.4" transform="translate(-574.53 -542.39)"/><path class="cls-9" d="M664.53,682.49c.6,28.22-.17,59-1.83,91.4" transform="translate(-574.53 -542.39)"/><path class="cls-9" d="M700.05,682.49v98.6" transform="translate(-574.53 -542.39)"/><circle class="cls-10" cx="73.31" cy="79.9" r="14.85"/><circle class="cls-10" cx="176.54" cy="81.86" r="14.85"/></svg>